<svg version="1.2" baseProfile="tiny-ps" xmlns="http://www.w3.org/2000/svg" viewBox="0 0 1500 1500" width="1500" height="1500">
	<title>Portfolio-ai</title>
	<style>
		tspan { white-space:pre }
		.shp0 { fill: #fafafa } 
		.shp1 { fill: #ebebeb } 
		.shp2 { fill: #27debf } 
		.shp3 { opacity: 0.2;fill: #000000 } 
		.shp4 { fill: #ffffff } 
		.shp5 { fill: #e0e0e0 } 
		.shp6 { fill: #f5f5f5 } 
		.shp7 { fill: #455a64 } 
		.shp8 { fill: #263238 } 
		.shp9 { fill: #37474f } 
		.shp10 { opacity: 0.302;fill: #000000 } 
		.shp11 { fill: #ffa8a7 } 
		.shp12 { fill: #f0f0f0 } 
		.shp13 { fill: #f28f8f } 
	</style>
	<g id="Floor">
		<g id="&lt;Group&gt;">
			<path id="&lt;Path&gt;" class="shp0" d="M269.75 1221.71C540.14 1362.96 978.53 1362.97 1248.92 1221.71C1519.31 1080.45 1519.31 851.44 1248.92 710.18C978.53 568.92 540.13 568.92 269.74 710.18C-0.65 851.43 -0.65 1080.45 269.75 1221.71Z" />
		</g>
	</g>
	<g id="Shadow">
		<path id="&lt;Path&gt;" class="shp1" d="M494.31 1222.26C527.16 1237.91 580.41 1237.91 613.25 1222.26C646.09 1206.61 646.09 1181.23 613.25 1165.57C580.41 1149.92 527.16 1149.92 494.31 1165.57C461.47 1181.23 461.47 1206.61 494.31 1222.26Z" />
	</g>
	<g id="Plants">
		<g id="&lt;Group&gt;">
			<g id="&lt;Group&gt;">
				<path id="&lt;Path&gt;" class="shp2" d="M275.26 761.74L289.1 758.23C293.08 743.42 295.95 724.84 297.72 702.49C301.28 657.4 283.8 623.51 262.03 609.48C236.17 592.82 222.61 608.05 224.16 620.02C225.81 632.65 239.47 650.49 245.97 662.82C255.4 680.68 269.66 707.72 275.26 761.74Z" />
				<path id="&lt;Path&gt;" class="shp3" d="M275.26 761.74L289.1 758.23C293.08 743.42 295.95 724.84 297.72 702.49C301.28 657.4 283.8 623.51 262.03 609.48C236.17 592.82 222.61 608.05 224.16 620.02C225.81 632.65 239.47 650.49 245.97 662.82C255.4 680.68 269.66 707.72 275.26 761.74Z" />
				<g id="&lt;Group&gt;">
					<path id="&lt;Path&gt;" class="shp4" d="M281.93 761.07C281.86 761.07 281.79 761.06 281.72 761.05C281.17 760.93 280.81 760.39 280.92 759.84C297.47 679.76 263.45 622.69 242.44 611.25C241.94 610.98 241.76 610.36 242.03 609.86C242.3 609.37 242.92 609.18 243.42 609.45C265.56 621.51 299.89 678.13 282.92 760.26C282.83 760.74 282.4 761.07 281.93 761.07Z" />
				</g>
			</g>
			<g id="&lt;Group&gt;">
				<path id="&lt;Path&gt;" class="shp2" d="M275.26 761.74C276.68 746.86 274.77 732.08 269.53 717.39C261.67 695.35 249.33 674.9 224.65 667.36C199.98 659.81 180.53 677.72 192.76 694.17C205 710.63 250.42 720.84 259.27 772.39L275.26 761.74Z" />
				<g id="&lt;Group&gt;">
					<path id="&lt;Path&gt;" class="shp4" d="M268.21 767.46C268.18 767.46 268.14 767.46 268.11 767.46C267.55 767.41 267.14 766.91 267.19 766.35C270.89 724.83 242.88 683.64 206.04 676.4C205.48 676.29 205.12 675.75 205.23 675.2C205.34 674.65 205.87 674.28 206.43 674.39C244.26 681.83 273.01 724.02 269.22 766.53C269.17 767.06 268.73 767.46 268.21 767.46Z" />
				</g>
			</g>
		</g>
		<g id="&lt;Group&gt;">
			<g id="&lt;Group&gt;">
				<path id="&lt;Path&gt;" class="shp2" d="M1173.66 1096.8C1176.8 1067.11 1187.62 1042.3 1206.13 1022.36C1233.9 992.46 1263.53 992.74 1275.07 1003.47C1286.61 1014.19 1274.74 1030.93 1248.96 1047.22C1226.88 1061.16 1197.7 1092.8 1188.72 1114.18L1173.66 1096.8Z" />
				<path id="&lt;Path&gt;" class="shp3" d="M1173.66 1096.8C1176.8 1067.11 1187.62 1042.3 1206.13 1022.36C1233.9 992.46 1263.53 992.74 1275.07 1003.47C1286.61 1014.19 1274.74 1030.93 1248.96 1047.22C1226.88 1061.16 1197.7 1092.8 1188.72 1114.18L1173.66 1096.8Z" />
			</g>
			<g id="&lt;Group&gt;">
				<path id="&lt;Path&gt;" class="shp4" d="M1180.05 1105.21C1179.97 1105.21 1179.88 1105.2 1179.79 1105.18C1179.24 1105.03 1178.91 1104.47 1179.05 1103.92C1190.85 1058.5 1230.46 1012.75 1263.81 1006.01C1264.37 1005.89 1264.92 1006.26 1265.03 1006.82C1265.15 1007.38 1264.78 1007.92 1264.22 1008.04C1231.55 1014.64 1192.68 1059.69 1181.05 1104.44C1180.93 1104.9 1180.51 1105.21 1180.05 1105.21Z" />
			</g>
		</g>
		<g id="&lt;Group&gt;">
			<path id="&lt;Path&gt;" class="shp2" d="M1178.45 1201.13C1192.13 1205.01 1203.89 1203.57 1213.74 1196.79C1226.37 1188.09 1223.23 1178.81 1224.69 1171.67C1226.16 1164.53 1232.35 1160.68 1242.68 1159.33C1255.41 1157.66 1267.29 1155.66 1269.52 1142.23C1271.49 1130.37 1251.92 1123.97 1257.75 1112.41C1262.16 1103.67 1272.06 1097.84 1280.23 1091.29C1288.35 1084.76 1283.53 1070.74 1264.02 1070.71C1239.85 1070.68 1234.81 1079.59 1224.02 1081.12C1213.23 1082.64 1207.22 1076.32 1195.43 1077.87C1182.39 1079.58 1176.01 1092.05 1175.7 1107.64L1178.45 1201.13Z" />
			<g id="&lt;Group&gt;">
				<path id="&lt;Path&gt;" class="shp4" d="M1177.12 1156.7C1177 1156.7 1176.88 1156.68 1176.77 1156.64C1176.23 1156.45 1175.95 1155.86 1176.14 1155.32C1186.91 1124.99 1244.9 1082.71 1269.34 1078.39C1269.89 1078.28 1270.44 1078.66 1270.54 1079.23C1270.64 1079.79 1270.26 1080.32 1269.7 1080.42C1245.67 1084.67 1188.67 1126.21 1178.09 1156.01C1177.94 1156.43 1177.54 1156.7 1177.12 1156.7Z" />
			</g>
			<g id="&lt;Group&gt;">
				<path id="&lt;Path&gt;" class="shp4" d="M1256.49 1138.89C1256.33 1138.89 1256.17 1138.85 1256.02 1138.77C1240.9 1130.99 1215.32 1125.32 1195.64 1129.55C1195.09 1129.66 1194.53 1129.32 1194.41 1128.75C1194.29 1128.2 1194.65 1127.65 1195.21 1127.53C1215.36 1123.21 1241.52 1128.98 1256.96 1136.93C1257.47 1137.19 1257.67 1137.82 1257.41 1138.32C1257.22 1138.68 1256.86 1138.89 1256.49 1138.89Z" />
			</g>
			<g id="&lt;Group&gt;">
				<path id="&lt;Path&gt;" class="shp4" d="M1206.13 1119.04L1206.13 1119.04C1205.56 1119.04 1205.1 1118.58 1205.1 1118C1205.14 1099.86 1199 1091.04 1198.94 1090.95C1198.61 1090.49 1198.71 1089.84 1199.18 1089.51C1199.64 1089.17 1200.28 1089.28 1200.62 1089.74C1200.89 1090.12 1207.21 1099.13 1207.17 1118.01C1207.16 1118.58 1206.7 1119.04 1206.13 1119.04Z" />
			</g>
		</g>
	</g>
	<g id="Resume">
		<g id="&lt;Group&gt;">
			<path id="&lt;Path&gt;" class="shp0" d="M447.68 99.54L449.48 98.5C452.35 96.85 457 96.85 459.87 98.5L754.13 268.4C757 270.05 759.33 274.08 759.33 277.4L759.33 687.54C759.33 690.85 757 694.88 754.13 696.54L752.34 697.57C749.47 699.23 744.82 699.23 741.95 697.57L447.69 527.68C444.82 526.02 442.49 521.99 442.49 518.68L442.49 108.54C442.49 105.23 444.81 101.2 447.68 99.54Z" />
			<path id="&lt;Path&gt;" class="shp5" d="M759.33 482.47L759.33 277.4C759.33 275.74 758.75 273.9 757.81 272.28L741.04 281.96L741.04 697.05L741.95 697.57C744.82 699.23 749.47 699.23 752.34 697.57L754.13 696.54C757 694.88 759.33 690.85 759.33 687.54L759.33 482.47Z" />
			<path id="&lt;Path&gt;" class="shp6" d="M447.68 105.54L741.95 275.43C744.82 277.09 747.14 281.12 747.14 284.43L747.14 694.57C747.14 697.89 744.82 699.23 741.95 697.57L447.69 527.68C444.82 526.02 442.49 521.99 442.49 518.68L442.49 108.54C442.49 105.23 444.81 103.88 447.68 105.54Z" />
			<path id="&lt;Path&gt;" class="shp5" d="M484.24 154.79L705.39 282.47C708.26 284.12 710.58 288.15 710.58 291.47L710.58 307.61C710.58 310.92 708.26 312.27 705.39 310.61L484.24 182.93C481.37 181.28 479.05 177.25 479.05 173.93L479.05 157.79C479.05 154.48 481.37 153.13 484.24 154.79Z" />
			<path id="&lt;Path&gt;" class="shp5" d="M509.51 225.66C526.34 235.38 539.98 259 539.98 278.43C539.98 297.86 526.34 305.74 509.51 296.02C492.69 286.31 479.05 262.68 479.05 243.25C479.05 223.83 492.69 215.95 509.51 225.66Z" />
			<g id="&lt;Group&gt;">
				<path id="&lt;Path&gt;" class="shp2" d="M509.75 236.96C503.85 233.55 499.07 236.32 499.07 243.13C499.07 249.95 503.85 258.24 509.75 261.64C515.66 265.05 520.44 262.29 520.44 255.47C520.44 248.66 515.66 240.37 509.75 236.96Z" />
				<path id="&lt;Path&gt;" class="shp2" d="M512.54 266.67L506.48 263.17C496.78 257.57 488.92 262.11 488.92 273.31L488.92 274.83C494.35 283.72 501.56 291.43 509.51 296.02C517.46 300.61 524.68 301.23 530.1 298.61L530.1 297.08C530.1 285.88 522.24 272.27 512.54 266.67Z" />
			</g>
			<path id="&lt;Path&gt;" class="shp5" d="M485.54 310.36L533.48 338.04C537.07 340.11 539.98 344.94 539.98 348.83C539.98 352.71 537.07 354.18 533.48 352.11L485.54 324.43C481.96 322.36 479.05 317.53 479.05 313.65C479.05 309.76 481.96 308.29 485.54 310.36Z" />
			<path id="&lt;Path&gt;" class="shp5" d="M485.54 338.49L533.48 366.17C537.07 368.24 539.98 373.07 539.98 376.95C539.98 380.84 537.07 382.31 533.48 380.24L485.54 352.56C481.96 350.49 479.05 345.66 479.05 341.77C479.05 337.89 481.96 336.42 485.54 338.49Z" />
			<path id="&lt;Path&gt;" class="shp5" d="M485.54 366.61L533.48 394.29C537.07 396.36 539.98 401.19 539.98 405.08C539.98 408.96 537.07 410.43 533.48 408.36L485.54 380.68C481.96 378.61 479.05 373.79 479.05 369.9C479.05 366.01 481.96 364.54 485.54 366.61Z" />
			<path id="&lt;Path&gt;" class="shp5" d="M485.54 394.74L533.48 422.42C537.07 424.49 539.98 429.32 539.98 433.2C539.98 437.09 537.07 438.56 533.48 436.49L485.54 408.81C481.96 406.74 479.05 401.91 479.05 398.02C479.05 394.14 481.96 392.67 485.54 394.74Z" />
			<path id="&lt;Path&gt;" class="shp2" d="M485.54 436.97L533.48 464.65C537.07 466.72 539.98 471.75 539.98 475.9L539.98 503.11C539.98 507.25 537.07 508.93 533.48 506.86L485.54 479.18C481.96 477.11 479.05 472.07 479.05 467.93L479.05 440.72C479.05 436.57 481.96 434.9 485.54 436.97Z" />
			<g id="&lt;Group&gt;">
				<path id="&lt;Path&gt;" class="shp2" d="M583.03 254.04L704.09 323.93C707.68 326 710.58 330.83 710.58 334.72C710.58 338.6 707.68 340.07 704.09 338L583.03 268.11C579.44 266.04 576.54 261.21 576.54 257.33C576.54 253.44 579.44 251.97 583.03 254.04Z" />
				<path id="&lt;Path&gt;" class="shp2" d="M583.03 282.18L704.09 352.08C707.68 354.15 710.58 358.98 710.58 362.86C710.58 366.75 707.68 368.22 704.09 366.15L583.03 296.25C579.44 294.18 576.54 289.35 576.54 285.47C576.54 281.58 579.44 280.11 583.03 282.18Z" />
				<path id="&lt;Path&gt;" class="shp2" d="M583.03 310.33L704.09 380.22C707.68 382.29 710.58 387.12 710.58 391C710.58 394.89 707.68 396.36 704.09 394.29L583.03 324.4C579.44 322.33 576.54 317.5 576.54 313.61C576.54 309.73 579.44 308.26 583.03 310.33Z" />
			</g>
		</g>
	</g>
	<g id="Photo 2">
		<g id="&lt;Group&gt;">
			<path id="&lt;Path&gt;" class="shp7" d="M997.36 359.11L1008.74 352.54C1012.33 350.47 1018.15 350.47 1021.73 352.54L1276.84 499.82C1280.43 501.9 1283.33 506.93 1283.33 511.07L1283.34 833.79C1283.34 837.93 1280.43 842.97 1276.84 845.04L1265.46 851.61C1261.87 853.68 1256.05 853.68 1252.47 851.61L997.33 704.32C993.74 702.25 990.83 697.21 990.83 693.07L990.86 370.36C990.87 366.22 993.77 361.18 997.36 359.11Z" />
			<path id="&lt;Path&gt;" class="shp8" d="M1283.34 672.43L1283.33 511.07C1283.33 509 1282.61 506.71 1281.43 504.67L1246.78 524.68L1246.78 848.32L1252.47 851.61C1256.05 853.68 1261.87 853.68 1265.46 851.61L1276.84 845.04C1280.43 842.97 1283.34 837.93 1283.34 833.79L1283.34 672.43Z" />
			<path id="&lt;Path&gt;" class="shp9" d="M997.36 366.61L1252.47 513.9C1256.05 515.97 1258.96 521 1258.96 525.15L1258.96 847.86C1258.96 852 1256.05 853.68 1252.47 851.61L997.33 704.32C993.74 702.25 990.83 697.21 990.83 693.07L990.86 370.36C990.87 366.22 993.77 364.54 997.36 366.61Z" />
			<path id="&lt;Path&gt;" class="shp4" d="M1234.17 524.32L1015.62 398.14C1012.04 396.07 1009.13 397.75 1009.13 401.89L1009.13 647.21C1009.13 651.35 1012.04 656.39 1015.62 658.46L1234.17 784.64C1237.76 786.71 1240.67 785.03 1240.67 780.89L1240.67 535.57C1240.67 531.43 1237.76 526.39 1234.17 524.32Z" />
			<path id="&lt;Path&gt;" class="shp2" d="M1059.73 452.95C1071.35 459.66 1080.77 475.98 1080.77 489.4C1080.77 502.82 1071.35 508.26 1059.73 501.55C1048.1 494.84 1038.68 478.52 1038.68 465.1C1038.68 451.68 1048.1 446.24 1059.73 452.95Z" />
			<path id="&lt;Path&gt;" class="shp2" d="M1114.38 602.27L1075.24 543.29C1068.91 533.75 1057.97 533.25 1050.8 542.18L1009.15 594.02L1009.15 647.34C1009.15 651.49 1012.06 656.52 1015.65 658.59L1234.17 784.69C1237.76 786.76 1240.67 785.09 1240.67 780.94L1240.67 642.62L1186.38 527.7C1181.49 517.35 1172.32 516.64 1165.91 526.12L1114.38 602.27Z" />
		</g>
	</g>
	<g id="Briefcase">
		<g id="&lt;Group&gt;">
			<path id="&lt;Path&gt;" class="shp7" d="M1052.6 1087.07L1124.11 1045.79C1131.29 1041.64 1137.1 1031.57 1137.1 1023.29L1137.1 617.07C1137.1 608.79 1131.29 598.72 1124.11 594.57L638.27 314.08C631.1 309.93 619.47 309.93 612.29 314.08L540.78 355.36C533.61 359.5 527.79 369.58 527.79 377.86L527.79 784.07C527.79 792.36 533.61 802.43 540.79 806.57L1026.62 1087.07C1033.8 1091.21 1045.43 1091.21 1052.6 1087.07Z" />
			<path id="&lt;Path&gt;" class="shp9" d="M1137.1 617.07C1137.1 612.93 1135.65 608.34 1133.3 604.27L1027.43 665.39L1027.43 1087.45C1034.64 1091.17 1045.67 1091.07 1052.59 1087.08L1124.12 1045.78C1131.29 1041.64 1137.1 1031.57 1137.1 1023.3L1137.1 617.07Z" />
			<path id="&lt;Path&gt;" class="shp9" d="M1026.62 650.86L540.78 370.36C533.61 366.22 527.79 369.58 527.79 377.86L527.79 784.07C527.79 792.36 533.61 802.43 540.79 806.57L1026.62 1087.07C1033.8 1091.21 1039.61 1087.86 1039.61 1079.57L1039.61 673.36C1039.61 665.07 1033.8 655 1026.62 650.86Z" />
			<path id="&lt;Path&gt;" class="shp8" d="M1069.26 626.25C1076.43 630.39 1082.25 640.46 1082.25 648.75L1082.25 1069.96L1094.44 1062.92L1094.43 641.71C1094.43 633.43 1088.62 623.35 1081.44 619.21L582.61 331.21L570.43 338.25L1069.26 626.25Z" />
			<path id="&lt;Path&gt;" class="shp9" d="M1081.44 619.21L583.41 331.67L570.83 338.48L1069.26 626.25C1072.84 628.32 1076.09 631.87 1078.44 635.94L1090.63 628.91C1088.28 624.83 1085.03 621.28 1081.44 619.21Z" />
			<g id="&lt;Group&gt;">
				<path id="&lt;Path&gt;" class="shp8" d="M1005.94 554.49L997.36 549.54C993.78 547.47 987.96 547.47 984.37 549.54L951.42 568.56L945.93 566.89L945.93 573.93C945.93 575.29 946.82 576.65 948.62 577.68L960 584.25C963.59 586.32 969.4 586.32 972.99 584.25L1008.74 563.61C1010.54 562.57 1011.43 561.22 1011.43 559.86L1011.43 559.86L1011.43 552.82L1005.94 554.49Z" />
				<path id="&lt;Path&gt;" class="shp7" d="M1008.74 549.07L997.36 542.5C993.77 540.43 987.96 540.43 984.37 542.5L948.62 563.14C945.03 565.22 945.03 568.57 948.62 570.64L960 577.22C963.59 579.29 969.4 579.29 972.99 577.22L1008.74 556.57C1012.33 554.5 1012.33 551.14 1008.74 549.07Z" />
			</g>
			<g id="&lt;Group&gt;">
				<path id="&lt;Path&gt;" class="shp8" d="M713.47 385.65L704.9 380.7C701.31 378.63 695.49 378.63 691.9 380.7L658.95 399.73L653.46 398.06L653.46 405.09C653.46 406.45 654.36 407.81 656.15 408.84L667.53 415.41C671.12 417.49 676.94 417.49 680.52 415.41L716.28 394.77C718.07 393.74 718.96 392.38 718.96 391.02L718.97 391.02L718.97 383.99L713.47 385.65Z" />
				<path id="&lt;Path&gt;" class="shp7" d="M716.28 380.24L704.89 373.66C701.31 371.59 695.49 371.59 691.9 373.66L656.15 394.31C652.56 396.38 652.56 399.74 656.15 401.81L667.53 408.38C671.12 410.45 676.94 410.45 680.52 408.38L716.28 387.74C719.86 385.66 719.86 382.31 716.28 380.24Z" />
			</g>
			<path id="&lt;Path&gt;" class="shp8" d="M808.07 383.97L808.07 426.18L783.71 440.25L783.71 375.9C783.71 372.57 786.02 371.25 788.9 372.9L808.07 383.97Z" />
			<path id="&lt;Path&gt;" class="shp7" d="M935.84 428.73L935.84 507.18L917.75 517.65L905.57 510.6L905.57 446.25C905.57 442.95 903.23 438.9 900.38 437.25L808.07 383.97L788.9 372.9C786.02 371.25 783.71 372.57 783.71 375.9L783.71 440.25L771.5 433.2L771.5 354.78C771.5 354.45 771.53 354.09 771.59 353.76C771.98 350.67 774.14 347.25 776.72 345.78L784.43 341.31C787.28 339.66 791.93 339.66 794.81 341.31L930.65 419.73C933.53 421.41 935.84 425.43 935.84 428.73Z" />
			<path id="&lt;Path&gt;" class="shp9" d="M917.75 439.2L917.75 517.65L905.57 510.6L905.57 446.25C905.57 442.95 903.23 438.9 900.38 437.25L808.07 383.97L788.9 372.9C786.02 371.25 783.71 372.57 783.71 375.9L783.71 440.25L771.5 433.2L771.5 354.78C771.5 354.45 771.53 354.09 771.59 353.76C772.04 351.21 774.17 350.31 776.72 351.78L912.56 430.2C915.41 431.88 917.75 435.9 917.75 439.2Z" />
		</g>
	</g>
	<g id="Folder">
		<g id="&lt;Group&gt;">
			<g id="&lt;Group&gt;">
				<path id="&lt;Path&gt;" class="shp2" d="M1100.55 1228.2L1112.73 1221.16L1100.55 869.84C1100.55 865.72 1097.62 860.66 1094.05 858.59L863.32 725.38C859.74 723.32 855.72 718.44 854.37 714.54L847.09 693.54C845.74 689.64 841.69 684.8 838.09 682.79L729.32 621.95C725.72 619.94 722.77 621.67 722.77 625.79L722.77 1002.59C722.77 1006.72 725.69 1011.78 729.27 1013.84L1100.55 1228.2Z" />
				<path id="&lt;Path&gt;" class="shp3" d="M1100.55 1228.2L1112.73 1221.16L1100.55 869.84C1100.55 865.72 1097.62 860.66 1094.05 858.59L863.32 725.38C859.74 723.32 855.72 718.44 854.37 714.54L847.09 693.54C845.74 689.64 841.69 684.8 838.09 682.79L729.32 621.95C725.72 619.94 722.77 621.67 722.77 625.79L722.77 1002.59C722.77 1006.72 725.69 1011.78 729.27 1013.84L1100.55 1228.2Z" />
			</g>
			<g id="&lt;Group&gt;">
				<path id="&lt;Path&gt;" class="shp4" d="M922.95 633.19L1180.65 781.97C1183.52 783.63 1185.85 787.66 1185.85 790.97L1185.85 1215.18C1185.85 1218.5 1183.52 1219.84 1180.65 1218.18L922.95 1069.4C920.08 1067.74 917.76 1063.71 917.76 1060.4L917.75 636.19C917.75 632.87 920.08 631.53 922.95 633.19Z" />
				<g id="&lt;Group&gt;" style="opacity: 0.502">
					<path id="&lt;Compound Path&gt;" fill-rule="evenodd" class="shp5" d="M1182.98 1220.39C1182 1220.39 1180.95 1220.09 1179.9 1219.49L922.2 1070.7C918.87 1068.77 916.26 1064.25 916.26 1060.4L916.25 636.19C916.25 634.06 917.08 632.36 918.52 631.52C919.97 630.69 921.86 630.82 923.7 631.89L1181.4 780.67C1184.74 782.6 1187.35 787.12 1187.35 790.97L1187.35 1215.18C1187.35 1217.34 1186.54 1219 1185.08 1219.85C1184.45 1220.21 1183.74 1220.39 1182.98 1220.39ZM920.63 633.98C920.4 633.98 920.19 634.03 920.02 634.12C919.54 634.41 919.25 635.16 919.25 636.19L919.26 1060.4C919.26 1063.18 921.29 1066.71 923.7 1068.1L1181.4 1216.89C1182.29 1217.39 1183.09 1217.54 1183.58 1217.25C1184.07 1216.97 1184.35 1216.21 1184.35 1215.18L1184.35 790.97C1184.35 788.19 1182.31 784.66 1179.9 783.27L922.2 634.49C921.62 634.15 921.08 633.98 920.63 633.98Z" />
				</g>
				<g id="&lt;Group&gt;">
					<path id="&lt;Path&gt;" class="shp9" d="M948.62 690.22L1069.68 760.12C1073.27 762.19 1076.17 767.02 1076.17 770.9C1076.18 774.79 1073.27 776.26 1069.68 774.19L948.62 704.3C945.03 702.22 942.13 697.4 942.13 693.51C942.13 689.62 945.03 688.15 948.62 690.22Z" />
					<path id="&lt;Path&gt;" class="shp5" d="M948.62 732.44L1154.98 851.57C1158.57 853.64 1161.48 858.47 1161.48 862.36C1161.48 866.24 1158.57 867.71 1154.99 865.64L948.62 746.51C945.03 744.44 942.13 739.61 942.13 735.72C942.13 731.84 945.03 730.37 948.62 732.44Z" />
					<path id="&lt;Path&gt;" class="shp5" d="M948.62 774.65L1154.98 893.79C1158.57 895.86 1161.48 900.69 1161.48 904.57C1161.48 908.46 1158.57 909.93 1154.99 907.86L948.62 788.73C945.03 786.65 942.13 781.83 942.13 777.94C942.13 774.05 945.03 772.58 948.62 774.65Z" />
					<path id="&lt;Path&gt;" class="shp5" d="M948.62 816.87L1154.98 936C1158.57 938.07 1161.48 942.9 1161.48 946.79C1161.48 950.67 1158.57 952.15 1154.99 950.07L948.62 830.94C945.03 828.87 942.13 824.04 942.13 820.16C942.13 816.27 945.03 814.8 948.62 816.87Z" />
					<path id="&lt;Path&gt;" class="shp5" d="M948.62 859.09L1154.98 978.22C1158.57 980.29 1161.48 985.12 1161.48 989C1161.48 992.89 1158.57 994.36 1154.99 992.29L948.62 873.16C945.03 871.09 942.13 866.26 942.13 862.37C942.13 858.49 945.03 857.01 948.62 859.09Z" />
					<path id="&lt;Path&gt;" class="shp5" d="M948.62 901.3L1154.98 1020.43C1158.57 1022.51 1161.48 1027.33 1161.48 1031.22C1161.48 1035.11 1158.57 1036.58 1154.99 1034.51L948.62 915.37C945.03 913.3 942.13 908.47 942.13 904.59C942.13 900.7 945.03 899.23 948.62 901.3Z" />
					<path id="&lt;Path&gt;" class="shp5" d="M948.62 943.52L1154.98 1062.65C1158.57 1064.72 1161.48 1069.55 1161.48 1073.44C1161.48 1077.32 1158.57 1078.79 1154.99 1076.72L948.62 957.59C945.03 955.52 942.13 950.69 942.13 946.8C942.13 942.92 945.03 941.45 948.62 943.52Z" />
					<path id="&lt;Path&gt;" class="shp5" d="M948.62 985.73L1154.98 1104.87C1158.57 1106.94 1161.48 1111.77 1161.48 1115.65C1161.48 1119.54 1158.57 1121.01 1154.99 1118.94L948.62 999.8C945.03 997.73 942.13 992.91 942.13 989.02C942.13 985.13 945.03 983.66 948.62 985.73Z" />
				</g>
			</g>
			<g id="&lt;Group&gt;">
				<g id="&lt;Group&gt;">
					<path id="&lt;Path&gt;" class="shp4" d="M886.39 654.27L1144.09 803.06C1146.96 804.71 1149.29 808.74 1149.29 812.06L1149.29 1236.27C1149.29 1239.58 1146.96 1240.92 1144.09 1239.27L886.39 1090.48C883.52 1088.82 881.2 1084.8 881.2 1081.48L881.19 657.27C881.19 653.96 883.52 652.61 886.39 654.27Z" />
					<path id="&lt;Compound Path&gt;" fill-rule="evenodd" class="shp5" d="M1146.42 1241.47C1145.44 1241.47 1144.39 1241.17 1143.34 1240.56L885.64 1091.78C882.31 1089.86 879.7 1085.33 879.7 1081.48L879.69 657.27C879.69 655.14 880.52 653.44 881.96 652.61C883.41 651.78 885.29 651.9 887.14 652.97L1144.84 801.76C1148.18 803.68 1150.79 808.21 1150.79 812.06L1150.79 1236.27C1150.79 1238.4 1149.96 1240.1 1148.51 1240.93C1147.89 1241.29 1147.18 1241.47 1146.42 1241.47ZM884.07 655.06C883.84 655.06 883.63 655.11 883.46 655.21C882.97 655.49 882.69 656.24 882.69 657.27L882.7 1081.48C882.7 1084.26 884.73 1087.79 887.14 1089.18L1144.84 1237.97C1145.73 1238.48 1146.52 1238.62 1147.02 1238.33C1147.51 1238.05 1147.79 1237.3 1147.79 1236.27L1147.79 812.06C1147.79 809.28 1145.75 805.75 1143.34 804.35L885.64 655.57C885.06 655.23 884.51 655.06 884.07 655.06Z" />
				</g>
				<g id="&lt;Group&gt;">
					<path id="&lt;Path&gt;" class="shp5" d="M912.06 711.31L1033.12 781.2C1036.7 783.27 1039.61 788.1 1039.61 791.99C1039.61 795.87 1036.71 797.34 1033.12 795.27L912.06 725.38C908.47 723.31 905.57 718.48 905.57 714.59C905.57 710.71 908.47 709.24 912.06 711.31Z" />
					<path id="&lt;Path&gt;" class="shp5" d="M912.06 753.52L1118.42 872.65C1122.01 874.73 1124.92 879.55 1124.92 883.44C1124.92 887.33 1122.01 888.8 1118.42 886.73L912.06 767.59C908.47 765.52 905.57 760.69 905.57 756.81C905.57 752.92 908.47 751.45 912.06 753.52Z" />
					<path id="&lt;Path&gt;" class="shp5" d="M912.06 795.74L1118.42 914.87C1122.01 916.94 1124.92 921.77 1124.92 925.66C1124.92 929.54 1122.01 931.01 1118.42 928.94L912.06 809.81C908.47 807.74 905.57 802.91 905.57 799.02C905.57 795.14 908.47 793.67 912.06 795.74Z" />
					<path id="&lt;Path&gt;" class="shp5" d="M912.06 837.95L1118.42 957.09C1122.01 959.16 1124.92 963.99 1124.92 967.87C1124.92 971.76 1122.01 973.23 1118.42 971.16L912.06 852.03C908.47 849.95 905.57 845.13 905.57 841.24C905.57 837.35 908.47 835.88 912.06 837.95Z" />
					<path id="&lt;Path&gt;" class="shp5" d="M912.06 880.17L1118.42 999.3C1122.01 1001.37 1124.92 1006.2 1124.92 1010.09C1124.92 1013.97 1122.01 1015.44 1118.42 1013.37L912.06 894.24C908.47 892.17 905.57 887.34 905.57 883.46C905.57 879.57 908.47 878.1 912.06 880.17Z" />
					<path id="&lt;Path&gt;" class="shp5" d="M912.06 922.39L1118.42 1041.52C1122.01 1043.59 1124.92 1048.42 1124.92 1052.3C1124.92 1056.19 1122.01 1057.66 1118.42 1055.59L912.06 936.46C908.47 934.39 905.57 929.56 905.57 925.67C905.57 921.79 908.47 920.31 912.06 922.39Z" />
					<path id="&lt;Path&gt;" class="shp5" d="M912.06 964.6L1118.42 1083.73C1122.01 1085.81 1124.92 1090.63 1124.92 1094.52C1124.92 1098.41 1122.01 1099.88 1118.42 1097.81L912.06 978.67C908.47 976.6 905.57 971.77 905.57 967.89C905.57 964 908.47 962.53 912.06 964.6Z" />
					<path id="&lt;Path&gt;" class="shp5" d="M912.06 1006.82L1118.42 1125.95C1122.01 1128.02 1124.92 1132.85 1124.92 1136.74C1124.92 1140.62 1122.01 1142.09 1118.42 1140.02L912.06 1020.89C908.47 1018.82 905.57 1013.99 905.57 1010.1C905.57 1006.22 908.47 1004.75 912.06 1006.82Z" />
				</g>
			</g>
			<path id="&lt;Path&gt;" class="shp2" d="M1100.55 1228.2L1040.98 904.9C1040.23 900.84 1036.69 895.84 1033.12 893.77L668.34 683.16C664.76 681.1 662.45 682.73 663.2 686.79L721.41 1002.72C722.16 1006.77 725.69 1011.78 729.27 1013.84L1100.55 1228.2Z" />
		</g>
	</g>
	<g id="Photo 1">
		<g id="&lt;Group&gt;">
			<path id="&lt;Path&gt;" class="shp7" d="M649.66 834.66L649.66 1044.81C649.66 1048.95 652.57 1053.98 656.15 1056.06L801.58 1140.02C805.17 1142.09 810.81 1142.19 814.17 1140.25C817.54 1138.31 820.26 1133.38 820.26 1129.23L820.26 919.09C820.26 914.95 817.35 909.91 813.77 907.84L668.34 823.88C664.75 821.81 659.11 821.7 655.75 823.65C652.38 825.59 649.66 830.52 649.66 834.66Z" />
			<path id="&lt;Path&gt;" class="shp8" d="M820.26 1024.16L820.26 919.09C820.26 917.02 819.54 914.73 818.36 912.69L800.08 923.25L800.08 1139.15L801.58 1140.02C805.17 1142.09 810.8 1142.19 814.17 1140.25L814.17 1140.25C817.54 1138.31 820.26 1133.38 820.26 1129.23L820.26 1024.16Z" />
			<path id="&lt;Path&gt;" class="shp9" d="M656.15 830.91L801.58 914.88C805.17 916.95 808.08 921.99 808.08 926.13L808.08 1136.27C808.08 1140.41 805.17 1142.09 801.58 1140.02L656.15 1056.06C652.57 1053.98 649.66 1048.95 649.66 1044.81L649.66 834.66C649.66 830.52 652.56 828.84 656.15 830.91Z" />
			<path id="&lt;Path&gt;" class="shp4" d="M668.34 852.02L789.4 921.91C792.98 923.99 795.89 929.02 795.89 933.16L795.89 1087.02C795.89 1091.16 792.98 1092.84 789.4 1090.77L668.34 1020.88C664.75 1018.81 661.84 1013.77 661.84 1009.63L661.84 855.77C661.84 851.63 664.75 849.95 668.34 852.02Z" />
			<path id="&lt;Path&gt;" class="shp2" d="M691.13 887.93C699.08 892.52 705.52 903.69 705.52 912.87C705.52 922.05 699.08 925.77 691.13 921.18C683.18 916.59 676.73 905.42 676.73 896.24C676.73 887.06 683.18 883.34 691.13 887.93Z" />
			<g id="&lt;Group&gt;">
				<path id="&lt;Path&gt;" class="shp2" d="M752.61 942.64L722.77 986.73L700.11 952.58C696.45 947.05 690.11 946.77 685.96 951.93L661.84 981.95L661.84 1009.63C661.84 1013.77 664.75 1018.81 668.34 1020.88L789.4 1090.77C792.98 1092.84 795.89 1091.16 795.89 1087.02L795.89 1010.09L764.46 943.55C761.63 937.56 756.32 937.15 752.61 942.64Z" />
				<path id="&lt;Path&gt;" class="shp3" d="M752.61 942.64L722.77 986.73L700.11 952.58C696.45 947.05 690.11 946.77 685.96 951.93L661.84 981.95L661.84 1009.63C661.84 1013.77 664.75 1018.81 668.34 1020.88L789.4 1090.77C792.98 1092.84 795.89 1091.16 795.89 1087.02L795.89 1010.09L764.46 943.55C761.63 937.56 756.32 937.15 752.61 942.64Z" />
			</g>
		</g>
	</g>
	<g id="Certificate">
		<g id="&lt;Group&gt;">
			<g id="&lt;Group&gt;">
				<path id="&lt;Path&gt;" class="shp4" d="M191.75 796.02C286.73 738.77 345 635.87 345 524.68L345 418.11C345 414.81 347.34 413.46 350.2 415.11L620.09 570.93C622.94 572.58 625.28 576.63 625.28 579.93L625.28 686.5C625.28 797.24 567.49 899.74 473.2 957.13C469.32 959.5 464.43 959.48 460.49 957.21L191.78 802.07C188.92 800.42 188.93 797.72 191.75 796.02Z" />
				<path id="&lt;Compound Path&gt;" fill-rule="evenodd" class="shp5" d="M466.82 960.42C464.39 960.42 461.94 959.78 459.74 958.51L191.03 803.37C189.18 802.3 188.15 800.78 188.13 799.1C188.12 797.4 189.13 795.85 190.98 794.74C285.06 738.02 343.5 634.55 343.5 524.68L343.5 418.11C343.5 415.98 344.33 414.29 345.78 413.45C347.23 412.62 349.11 412.75 350.95 413.81L620.84 569.63C624.17 571.56 626.78 576.08 626.78 579.93L626.78 686.5C626.78 796.86 568.23 901.05 473.98 958.42C471.79 959.75 469.31 960.42 466.82 960.42ZM192.53 797.3C191.64 797.84 191.13 798.49 191.13 799.07C191.14 799.64 191.65 800.26 192.53 800.77L461.24 955.91C464.75 957.94 469.03 957.91 472.42 955.85C565.79 899.03 623.78 795.82 623.78 686.5L623.78 579.93C623.78 577.15 621.75 573.62 619.34 572.23L349.45 416.41C348.56 415.89 347.77 415.77 347.28 416.05C346.78 416.34 346.5 417.09 346.5 418.11L346.5 524.68C346.5 635.59 287.5 740.05 192.53 797.3Z" />
			</g>
			<g id="&lt;Group&gt;">
				<path id="&lt;Path&gt;" class="shp5" d="M509.91 549.54L582.23 591.29C585.81 593.36 588.72 598.19 588.72 602.07C588.72 605.96 585.81 607.43 582.23 605.36L509.91 563.61C506.33 561.54 503.42 556.71 503.42 552.82C503.42 548.94 506.33 547.46 509.91 549.54Z" />
				<path id="&lt;Path&gt;" class="shp5" d="M466.85 587.99C466.85 591.87 463.94 593.35 460.36 591.27L388.06 549.54C384.47 547.47 381.56 542.64 381.56 538.76C381.56 534.87 384.47 533.4 388.06 535.47L460.36 577.2C463.94 579.28 466.85 584.1 466.85 587.99Z" />
				<path id="&lt;Path&gt;" class="shp5" d="M585.18 712.56C584.63 716.13 581.21 717.34 577.63 715.26L383.5 603.18C379.91 601.11 377.5 596.54 378.03 592.96C378.57 589.39 381.83 588.15 385.42 590.22L579.61 702.33C583.19 704.41 585.73 708.99 585.18 712.56Z" />
				<path id="&lt;Path&gt;" class="shp5" d="M577.16 750.17C576.22 753.52 572.48 754.53 568.9 752.46L374.77 640.35C371.18 638.28 369.09 633.91 370.02 630.56C370.95 627.22 374.54 626.16 378.13 628.23L572.29 740.34C575.87 742.42 578.09 746.82 577.16 750.17Z" />
				<path id="&lt;Path&gt;" class="shp5" d="M565.09 785.41C563.8 788.55 559.79 789.4 556.21 787.32L362.05 675.24C358.46 673.17 356.67 668.98 357.96 665.83C359.24 662.68 363.11 661.77 366.7 663.84L560.86 775.95C564.44 778.03 566.37 782.27 565.09 785.41Z" />
				<path id="&lt;Path&gt;" class="shp5" d="M549.25 818.49C547.62 821.43 543.32 822.1 539.74 820.02L345.61 707.97C342.02 705.9 340.49 701.87 342.11 698.92C343.73 695.97 347.9 695.22 351.49 697.29L545.65 809.37C549.23 811.45 550.88 815.55 549.25 818.49Z" />
				<path id="&lt;Path&gt;" class="shp5" d="M437.14 810.06C435.07 812.75 430.43 813.22 426.85 811.14L317.98 748.29C314.39 746.22 313.22 742.4 315.3 739.71C317.38 737.02 321.92 736.47 325.51 738.54L434.38 801.42C437.96 803.49 439.22 807.38 437.14 810.06Z" />
			</g>
			<g id="&lt;Group&gt;">
				<path id="&lt;Path&gt;" class="shp2" d="M397.39 868.22C359.34 893.31 317.5 906.73 271.89 908.47C285.83 916.53 317.3 919.87 341.61 916.53C339.35 925.95 330.05 936.69 313.72 948.73C340.31 955.9 377.5 934.43 425.28 884.32L397.39 868.22Z" />
				<g id="&lt;Group&gt;">
					<g id="&lt;Group&gt;">
						<path id="&lt;Path&gt;" class="shp2" d="M457.69 882.37C445.48 894.78 420.84 895.82 404.01 886.1C387.18 876.39 384.53 859.61 396.74 847.2C408.95 834.79 431.34 831.53 448.17 841.24C465 850.95 469.9 869.95 457.69 882.37Z" />
						<path id="&lt;Path&gt;" class="shp3" d="M457.69 882.37C445.48 894.78 420.84 895.82 404.01 886.1C387.18 876.39 384.53 859.61 396.74 847.2C408.95 834.79 431.34 831.53 448.17 841.24C465 850.95 469.9 869.95 457.69 882.37Z" />
					</g>
					<path id="&lt;Path&gt;" class="shp2" d="M457.69 878.61C445.48 891.02 420.84 892.06 404.01 882.35C387.18 872.63 384.53 855.85 396.74 843.44C408.95 831.03 431.34 827.77 448.17 837.48C465 847.19 469.9 866.19 457.69 878.61Z" />
					<g id="&lt;Group&gt;">
						<path id="&lt;Path&gt;" class="shp2" d="M429.39 879.87C421.87 879.87 414.45 877.98 408.51 874.55C402.55 871.11 398.91 866.6 398.27 861.85C397.56 856.67 400.54 852.41 403.15 849.75C408.66 844.15 417.37 840.81 426.44 840.81C432.65 840.81 438.61 842.36 443.67 845.28C450.19 849.03 454.56 854.77 455.35 860.63C455.94 864.95 454.53 868.99 451.27 872.3C446.54 877.11 438.56 879.87 429.39 879.87Z" />
						<path id="&lt;Path&gt;" class="shp10" d="M429.39 879.87C421.87 879.87 414.45 877.98 408.51 874.55C402.55 871.11 398.91 866.6 398.27 861.85C397.56 856.67 400.54 852.41 403.15 849.75C408.66 844.15 417.37 840.81 426.44 840.81C432.65 840.81 438.61 842.36 443.67 845.28C450.19 849.03 454.56 854.77 455.35 860.63C455.94 864.95 454.53 868.99 451.27 872.3C446.54 877.11 438.56 879.87 429.39 879.87Z" />
					</g>
					<g id="&lt;Group&gt;">
						<path id="&lt;Path&gt;" class="shp2" d="M443.67 849.06C438.61 846.14 432.65 844.59 426.44 844.59C417.37 844.59 408.66 847.93 403.15 853.53C401.14 855.57 398.94 858.56 398.34 862.18C399.1 866.8 402.69 871.19 408.51 874.55C414.45 877.98 421.87 879.87 429.39 879.87C438.56 879.87 446.54 877.11 451.27 872.3C453.58 869.96 454.94 867.25 455.34 864.34C454.52 858.51 450.16 852.8 443.67 849.06Z" />
						<path id="&lt;Path&gt;" class="shp3" d="M443.67 849.06C438.61 846.14 432.65 844.59 426.44 844.59C417.37 844.59 408.66 847.93 403.15 853.53C401.14 855.57 398.94 858.56 398.34 862.18C399.1 866.8 402.69 871.19 408.51 874.55C414.45 877.98 421.87 879.87 429.39 879.87C438.56 879.87 446.54 877.11 451.27 872.3C453.58 869.96 454.94 867.25 455.34 864.34C454.52 858.51 450.16 852.8 443.67 849.06Z" />
					</g>
				</g>
			</g>
		</g>
	</g>
	<g id="Character">
		<g id="&lt;Group&gt;">
			<g id="&lt;Group&gt;">
				<path id="&lt;Path&gt;" class="shp8" d="M570.52 781.09C570.52 793.57 560.41 803.68 547.93 803.68C535.46 803.68 525.35 793.57 525.35 781.09C525.35 768.62 535.46 758.51 547.93 758.51C560.41 758.51 570.52 768.62 570.52 781.09Z" />
				<g id="&lt;Group&gt;">
					<g id="&lt;Group&gt;">
						<g id="&lt;Group&gt;">
							<path id="&lt;Path&gt;" class="shp11" d="M602.01 1190.42L586.1 1190.42L586.1 1163.19L602.01 1163.19L602.01 1190.42Z" />
							<path id="&lt;Path&gt;" class="shp11" d="M546.86 1161.74L530.96 1162.28L530.17 1133.47L546.86 1132.92L546.86 1161.74Z" />
							<path id="&lt;Path&gt;" class="shp9" d="M600.97 929.81C600.97 939.93 601.62 981.52 602.93 1054.57C603.3 1058.95 607.4 1067 606.51 1083.79C605.71 1098.99 604.44 1130 602.69 1176.8C597.54 1179.81 591.64 1179.93 584.98 1177.15C575.62 1114.96 570 1076.34 568.1 1061.27C566.44 1048.12 564.2 1023.69 561.39 987.97L552.77 1052.36C554.72 1060.2 555.38 1068.62 554.74 1077.63C554.24 1084.6 551.95 1109.66 547.87 1152.81C542.88 1156.2 536.75 1156.67 529.5 1154.22C524.14 1092.7 521.4 1058.75 521.28 1052.36C521.14 1045.07 522.9 1004.22 526.57 929.81L600.97 929.81Z" />
							<path id="&lt;Path&gt;" class="shp4" d="M594.18 843.51C598.11 845.91 600.08 851.92 600.08 861.54L600.08 892.71L600.54 951.55C577.71 963.59 548.88 964.29 524.52 946.5C525.3 896.07 525.68 866.73 525.68 858.47C525.68 846.08 532.59 829.97 551.6 828.87L576.14 834.57L594.18 843.51Z" />
							<g id="&lt;Group&gt;">
								<path id="&lt;Path&gt;" class="shp11" d="M525.82 908.55C533.2 877.56 535.62 846.58 536.88 838.59L516.46 871.23C513.44 888.13 511.16 901.06 509.62 910.01C507.58 921.8 500.78 943.04 496.88 952.32C496.19 953.97 492.78 956.19 491.17 956.96C486.85 959.02 484.93 961.42 481.53 964.26C478.88 966.47 476.78 966.86 477 967.69C477.29 968.75 478.8 970.59 481.81 970.03C483.33 969.75 485.35 968.82 487.88 967.58C486.38 970.76 484.05 973.89 480.88 976.98C474.44 983.26 473.7 987.49 485.1 988.89C492.24 989.77 498.45 986.01 505.62 970.87C507.69 966.51 510.93 959.63 512.66 953.76C517.17 938.48 523.58 917.92 525.82 908.55Z" />
								<path id="&lt;Path&gt;" class="shp9" d="M542.2 828.89C535.32 827.78 530.58 828.38 525.87 833.46C522.92 836.65 519.84 841.91 514.7 873.67C511.72 892.07 505.98 916.46 497.49 946.85C501.96 952.28 507.75 954.37 514.85 953.11L537.29 870.56L542.2 828.89Z" />
							</g>
							<path id="&lt;Path&gt;" class="shp9" d="M552.48 830.22C546.75 834.77 543.1 840.42 541.55 847.14C540 853.87 539.1 894.81 538.85 969.96C530.87 968.49 525.01 966.28 521.27 963.35C521.27 904.51 521.27 870.17 521.27 860.34C521.27 845.59 524.59 823.13 552.48 830.22Z" />
							<path id="&lt;Path&gt;" class="shp9" d="M577.02 835.93C577.02 835.92 563.69 849.75 563.41 883.5C563.23 906 562.95 936.98 562.57 976.44C578.2 979.62 591.6 977.88 602.75 971.21C601.49 914.85 600.75 882.44 600.54 873.99C600.17 859.48 604.42 847.15 596.25 843.06C590.81 840.33 584.4 837.95 577.02 835.93Z" />
							<g id="&lt;Group&gt;">
								<g id="&lt;Group&gt;">
									<path id="&lt;Path&gt;" class="shp8" d="M586.97 797.15C584.53 808.61 582.82 815.28 581.84 817.17C580.86 819.05 579.36 820.26 577.34 820.79L577.6 808.7L586.97 797.15Z" />
									<path id="&lt;Path&gt;" class="shp8" d="M582.38 772.52C585 772.07 587.34 772.89 589.39 774.99C592.4 778.07 590.72 787.71 586.97 797.15L580.08 797.94L582.38 772.52Z" />
									<path id="&lt;Path&gt;" class="shp11" d="M578.01 797.95C579.39 798.77 581.36 796.12 583.07 794.33C584.77 792.55 590.34 790.11 593.11 795.96C595.94 801.92 590.66 809.8 586.28 811.17C581.25 812.75 578.35 811.93 577.6 808.7L577.02 835.93L550.86 853.18C549.73 846.87 550.26 840.88 552.46 835.21L552.48 826.92C547.92 827.62 544.53 827.79 542.31 827.45C536.75 826.59 533.26 822.21 531.58 816.2C528.87 806.54 527.84 798.75 530.14 779.77C532.65 758.96 556.86 758.74 569.92 766.97C578.64 772.45 581.33 782.78 578.01 797.95Z" />
									<path id="&lt;Path&gt;" class="shp12" d="M550.86 853.18L577.11 831.81L577.18 828.38C581.25 829.19 583.54 832.44 584.07 838.12L568.13 862.39L561.39 849.75L550.86 853.18Z" />
									<path id="&lt;Path&gt;" class="shp12" d="M552.48 826.92C548.7 827.43 545.98 829.05 544.32 831.81C542.66 834.56 540.31 841.69 537.29 853.18L545.77 846.63L550.86 853.18C550.33 847.93 550.82 841.96 552.46 835.21L552.48 826.92Z" />
									<path id="&lt;Path&gt;" class="shp8" d="M578.01 800.27C578.7 800.29 581.35 795.9 583.07 794.33C584.66 792.89 584.43 785.62 582.38 772.52C583.9 769.27 583.14 765.95 580.08 762.59C576.81 758.99 571.35 758.59 562.03 757.13C557.14 756.36 549.73 754.99 544.85 754.08C539.02 753 534.2 751.85 530.08 755.43C526.88 758.21 525.5 763.13 527.22 767.01C527.63 767.92 528.21 768.74 528.88 769.48C530.06 770.79 531.39 771.83 533.07 772.37C534.77 773.88 538.56 774.99 544.46 775.7C553.3 776.78 567.08 775.5 568.96 775.24C571.52 774.89 572.07 777.37 573.45 784.16C574.67 790.12 575.67 800.23 578.01 800.27Z" />
									<path id="&lt;Path&gt;" class="shp8" d="M582.36 774.05L590.72 769.56C589.53 767.17 586.7 766.23 584.39 767.47C582.09 768.71 581.18 771.65 582.36 774.05Z" />
									<path id="&lt;Path&gt;" class="shp13" d="M552.48 826.92C560.74 825.26 566.32 823.66 569.21 822.12C572.11 820.58 574.5 817.91 575.2 816.2C574.66 818.65 573.52 820.98 571.79 823.19C569.68 825.89 563.25 828.23 552.48 830.22L552.48 826.92Z" />
								</g>
								<g id="&lt;Group&gt;">
									<path id="&lt;Path&gt;" class="shp8" d="M555.46 794.85C555.46 796.27 556.57 797.43 557.94 797.42C559.32 797.42 560.43 796.26 560.43 794.83C560.43 793.41 559.32 792.26 557.94 792.26C556.57 792.26 555.46 793.42 555.46 794.85Z" />
									<path id="&lt;Path&gt;" class="shp8" d="M558.09 785.47L563.41 788.4C564.19 786.88 563.64 784.98 562.17 784.17C560.7 783.36 558.88 783.94 558.09 785.47Z" />
									<path id="&lt;Path&gt;" class="shp13" d="M553.6 812L547.93 814.13C548.5 815.76 550.22 816.6 551.79 816.01C553.35 815.42 554.17 813.63 553.6 812Z" />
									<path id="&lt;Path&gt;" class="shp8" d="M533.31 787.54L538.16 783.81C537.17 782.42 535.28 782.13 533.95 783.16C532.61 784.19 532.33 786.15 533.31 787.54Z" />
									<path id="&lt;Path&gt;" class="shp8" d="M534.81 794.14C534.81 795.57 535.92 796.72 537.29 796.71C538.66 796.71 539.77 795.55 539.77 794.13C539.77 792.7 538.66 791.55 537.29 791.55C535.92 791.56 534.81 792.72 534.81 794.14Z" />
									<path id="&lt;Path&gt;" class="shp13" d="M547.46 791.79L546.64 806.72L538.85 804.06L547.46 791.79Z" />
								</g>
							</g>
							<path id="&lt;Path&gt;" class="shp8" d="M586.1 1182.57L586.1 1180.29C584.58 1180.96 581.05 1194.45 574.74 1200.2C569.72 1204.78 562.87 1210.07 561.13 1215.17C559.32 1220.47 570.66 1223.4 575.35 1222.57C580.8 1221.61 590.24 1217.77 592.61 1214.22C594.98 1210.66 596.09 1205.42 598.01 1202.81C599.94 1200.21 604.38 1197.3 605.42 1194.28C605.99 1192.63 605.31 1189 604.51 1185.93C603.77 1183.12 602.97 1180.03 602.01 1180.29C602.01 1180.52 602.01 1181.1 602.01 1182.03C600.86 1183.31 597.66 1184.58 594.06 1184.71C591.73 1184.8 586.09 1184.34 586.1 1182.57Z" />
							<path id="&lt;Path&gt;" class="shp8" d="M530.8 1157.38C529.97 1157.41 529.3 1158.57 527.48 1160.54C525.27 1162.93 521.67 1165.5 518.12 1167.28C512.16 1170.26 500.58 1174.84 495.34 1177.21C492.07 1178.68 492.22 1182.63 495.61 1184.89C498.99 1187.14 507.16 1188.76 516.97 1186.56C522.32 1185.37 529.27 1180.43 533.68 1180.7C538.08 1180.96 546.32 1180.9 549.57 1178.66C552.82 1176.42 551.52 1171.63 550.6 1167.52C549.6 1163.04 548.35 1156.04 546.86 1156.34L546.86 1157.89C544.95 1160.79 535.08 1161.96 530.88 1159.83L530.8 1157.38Z" />
						</g>
					</g>
				</g>
				<path id="&lt;Path&gt;" class="shp8" d="M561.39 987.97C552.91 985.58 545.53 981.35 539.24 975.27C542.09 980.61 547.75 985.76 556.22 990.72L553.5 1046.85L561.39 987.97Z" />
			</g>
			<path id="&lt;Path&gt;" class="shp8" d="M558.53 850.68C557.65 848.52 554.52 847.52 551.59 847.47C549.04 847.43 546.95 849.54 547.09 852.09C547.21 854.37 547.58 857.22 548.61 859.26C551.08 858.67 553.29 858.86 555.24 859.85C556.99 857.49 558.09 854.43 558.53 850.68Z" />
			<path id="&lt;Path&gt;" class="shp8" d="M548.61 859.26C544.92 889.52 543.12 905.54 543.22 907.32C543.37 910 549.01 925.71 551.9 925.71C555.08 925.71 560.43 911.59 560.58 909.37C560.68 907.88 558.9 891.38 555.24 859.85C553.29 858.12 550.56 858.12 548.61 859.26Z" />
			<path id="&lt;Path&gt;" class="shp2" d="M585.65 1104.8L574 1098.07C572.83 1097.4 571.88 1095.75 571.88 1094.4L571.88 1028.21C571.88 1026.86 572.83 1025.22 574 1024.54L653.17 978.83C654.34 978.16 656.24 978.16 657.41 978.83L669.06 985.56C670.23 986.23 671.18 987.88 671.18 989.23L671.18 1055.42C671.18 1056.77 670.23 1058.41 669.06 1059.09L589.89 1104.8C588.72 1105.47 586.82 1105.47 585.65 1104.8Z" />
			<path id="&lt;Path&gt;" class="shp13" d="M571.88 1028.21C571.88 1027.53 572.12 1026.79 572.5 1026.12L589.76 1036.08L589.76 1104.86C588.58 1105.47 586.78 1105.45 585.65 1104.8L574 1098.07C572.83 1097.39 571.88 1095.76 571.88 1094.41L571.88 1028.21Z" />
			<g id="&lt;Group&gt;">
				<path id="&lt;Path&gt;" class="shp2" d="M571.88 1028.21C571.88 1027.53 572.12 1026.79 572.5 1026.12L589.76 1036.08L589.76 1104.86C588.58 1105.47 586.78 1105.45 585.65 1104.8L574 1098.07C572.83 1097.39 571.88 1095.76 571.88 1094.41L571.88 1028.21Z" />
				<path id="&lt;Path&gt;" class="shp3" d="M571.88 1028.21C571.88 1027.53 572.12 1026.79 572.5 1026.12L589.76 1036.08L589.76 1104.86C588.58 1105.47 586.78 1105.45 585.65 1104.8L574 1098.07C572.83 1097.39 571.88 1095.76 571.88 1094.41L571.88 1028.21Z" />
			</g>
			<path id="&lt;Path&gt;" class="shp2" d="M589.89 1033.71L669.06 988C670.23 987.33 671.18 987.88 671.18 989.23L671.18 1055.42C671.18 1056.77 670.23 1058.41 669.06 1059.09L589.89 1104.8C588.72 1105.47 587.77 1104.93 587.77 1103.58L587.77 1037.38C587.77 1036.03 588.72 1034.39 589.89 1033.71Z" />
			<g id="&lt;Group&gt;">
				<path id="&lt;Path&gt;" class="shp2" d="M582.94 1029.7C581.77 1030.38 580.82 1032.02 580.82 1033.37L580.82 1102.01L578.84 1100.86L578.84 1032.22C578.84 1030.87 579.78 1029.23 580.95 1028.56L662.24 981.62L664.23 982.77L582.94 1029.7Z" />
				<path id="&lt;Path&gt;" class="shp10" d="M582.94 1029.7C581.77 1030.38 580.82 1032.02 580.82 1033.37L580.82 1102.01L578.84 1100.86L578.84 1032.22C578.84 1030.87 579.78 1029.23 580.95 1028.56L662.24 981.62L664.23 982.77L582.94 1029.7Z" />
			</g>
			<g id="&lt;Group&gt;">
				<path id="&lt;Path&gt;" class="shp2" d="M580.95 1028.56L662.11 981.7L664.16 982.81L582.94 1029.7C582.35 1030.04 581.83 1030.62 581.44 1031.28L579.46 1030.14C579.84 1029.47 580.37 1028.89 580.95 1028.56Z" />
				<path id="&lt;Path&gt;" class="shp3" d="M580.95 1028.56L662.11 981.7L664.16 982.81L582.94 1029.7C582.35 1030.04 581.83 1030.62 581.44 1031.28L579.46 1030.14C579.84 1029.47 580.37 1028.89 580.95 1028.56Z" />
			</g>
			<g id="&lt;Group&gt;">
				<g id="&lt;Group&gt;">
					<path id="&lt;Path&gt;" class="shp2" d="M593.26 1018.01L594.65 1017.2C595.24 1016.87 596.19 1016.87 596.77 1017.2L602.14 1020.3L603.04 1020.03L603.04 1021.18C603.04 1021.4 602.89 1021.62 602.6 1021.79L600.74 1022.86C600.16 1023.2 599.21 1023.2 598.63 1022.86L592.8 1019.5C592.51 1019.33 592.36 1019.11 592.36 1018.88L592.36 1017.74L593.26 1018.01Z" />
					<path id="&lt;Path&gt;" class="shp3" d="M593.26 1018.01L594.65 1017.2C595.24 1016.87 596.19 1016.87 596.77 1017.2L602.14 1020.3L603.04 1020.03L603.04 1021.18C603.04 1021.4 602.89 1021.62 602.6 1021.79L600.74 1022.86C600.16 1023.2 599.21 1023.2 598.63 1022.86L592.8 1019.5C592.51 1019.33 592.36 1019.11 592.36 1018.88L592.36 1017.74L593.26 1018.01Z" />
				</g>
				<path id="&lt;Path&gt;" class="shp2" d="M592.8 1017.13L594.65 1016.06C595.24 1015.72 596.19 1015.72 596.77 1016.06L602.6 1019.42C603.18 1019.76 603.18 1020.3 602.6 1020.64L600.74 1021.71C600.16 1022.05 599.21 1022.05 598.63 1021.71L592.8 1018.35C592.22 1018.01 592.22 1017.46 592.8 1017.13Z" />
			</g>
			<g id="&lt;Group&gt;">
				<g id="&lt;Group&gt;">
					<path id="&lt;Path&gt;" class="shp2" d="M638.26 994.01L639.65 993.2C640.24 992.87 641.19 992.87 641.77 993.2L647.14 996.3L648.04 996.03L648.04 997.18C648.04 997.4 647.89 997.62 647.6 997.79L645.74 998.86C645.16 999.2 644.21 999.2 643.63 998.86L637.8 995.5C637.51 995.33 637.36 995.11 637.36 994.88L637.36 993.74L638.26 994.01Z" />
					<path id="&lt;Path&gt;" class="shp3" d="M638.26 994.01L639.65 993.2C640.24 992.87 641.19 992.87 641.77 993.2L647.14 996.3L648.04 996.03L648.04 997.18C648.04 997.4 647.89 997.62 647.6 997.79L645.74 998.86C645.16 999.2 644.21 999.2 643.63 998.86L637.8 995.5C637.51 995.33 637.36 995.11 637.36 994.88L637.36 993.74L638.26 994.01Z" />
				</g>
				<path id="&lt;Path&gt;" class="shp2" d="M637.8 993.13L639.65 992.06C640.24 991.72 641.19 991.72 641.77 992.06L647.6 995.42C648.18 995.76 648.18 996.3 647.6 996.64L645.74 997.71C645.16 998.05 644.21 998.05 643.63 997.71L637.8 994.35C637.22 994.01 637.22 993.46 637.8 993.13Z" />
			</g>
			<g id="&lt;Group&gt;">
				<path id="&lt;Path&gt;" class="shp2" d="M625.5 990.22L625.5 997.1L629.47 999.39L629.47 988.91C629.47 988.36 629.09 988.15 628.63 988.42L625.5 990.22Z" />
				<path id="&lt;Path&gt;" class="shp10" d="M625.5 990.22L625.5 997.1L629.47 999.39L629.47 988.91C629.47 988.36 629.09 988.15 628.63 988.42L625.5 990.22Z" />
			</g>
			<path id="&lt;Path&gt;" class="shp2" d="M604.68 997.52L604.68 1010.3L607.63 1012.01L609.61 1010.86L609.61 1000.37C609.61 999.83 609.99 999.17 610.46 998.9L625.5 990.22L628.63 988.42C629.09 988.15 629.47 988.36 629.47 988.91L629.47 999.39L631.46 998.24L631.46 985.47C631.46 985.41 631.46 985.35 631.45 985.3C631.38 984.8 631.03 984.24 630.61 984L629.35 983.27C628.89 983 628.13 983 627.66 983.27L605.53 996.05C605.06 996.32 604.68 996.98 604.68 997.52Z" />
			<g id="&lt;Group&gt;">
				<path id="&lt;Path&gt;" class="shp2" d="M607.63 999.22L607.63 1012.01L609.61 1010.86L609.61 1000.37C609.61 999.83 609.99 999.17 610.46 998.9L625.5 990.22L628.63 988.42C629.09 988.15 629.47 988.36 629.47 988.91L629.47 999.39L631.46 998.24L631.46 985.47C631.46 985.41 631.46 985.35 631.45 985.3C631.37 984.88 631.03 984.74 630.61 984.98L608.47 997.76C608.01 998.03 607.63 998.68 607.63 999.22Z" />
				<path id="&lt;Path&gt;" class="shp3" d="M607.63 999.22L607.63 1012.01L609.61 1010.86L609.61 1000.37C609.61 999.83 609.99 999.17 610.46 998.9L625.5 990.22L628.63 988.42C629.09 988.15 629.47 988.36 629.47 988.91L629.47 999.39L631.46 998.24L631.46 985.47C631.46 985.41 631.46 985.35 631.45 985.3C631.37 984.88 631.03 984.74 630.61 984.98L608.47 997.76C608.01 998.03 607.63 998.68 607.63 999.22Z" />
			</g>
			<path id="&lt;Path&gt;" class="shp11" d="M624.76 967.5C624.7 970.14 624.7 972.02 624.76 973.16C624.86 974.86 627.11 983.78 627.07 988.92C627.47 990.78 624.9 994.48 620.63 996.48C618.81 997.34 615.64 1000.28 614.19 1000.43C613.54 1000.5 612.29 999.99 610.46 998.9L612.27 997.86C613.92 995.45 613.84 993.59 612.03 992.3L606.64 995.41C606.3 993.92 606.3 992.28 606.64 990.48C607.14 987.77 607.2 984.31 607.63 981.49C607.92 979.6 608.86 977.53 610.46 975.26L609.56 966.35L624.76 967.5Z" />
			<path id="&lt;Path&gt;" class="shp9" d="M591.26 840.81C597.45 843.04 601.92 845.26 604.68 847.47C608.02 850.15 627.44 905.82 628.19 910.84C628.7 914.18 627.99 933.43 626.08 968.59C621.23 972.3 615.36 972.68 608.44 969.72L605.33 916.85L588.6 873.32C584.41 861.18 585.3 850.35 591.26 840.81Z" />
		</g>
	</g>
</svg>